<svg xmlns="http://www.w3.org/2000/svg" viewBox="0 0 32 32" width="32" height="32" role="img" aria-label="Bitcoin">
  <circle cx="16" cy="16" r="16" fill="#F7931A"/>
  <path fill="#FFFFFF" d="M22.86 13.91c.31-2.05-1.25-3.16-3.39-3.9l.69-2.77-1.69-.42-.67 2.7c-.44-.11-.9-.21-1.36-.32l.68-2.71-1.69-.42-.69 2.77c-.37-.08-.73-.17-1.08-.25l-2.33-.58-.45 1.81s1.25.29 1.23.3c.69.17.81.62.79 .98l-.79 3.16c.05.01.11.03.18.06l-.18-.04-1.11 4.43c-.08.21-.3.52-.78.41.01.02-1.23-.31-1.23-.31l-.84 1.94 2.2.55c.41.1.81.21 1.21.31l-.7 2.81 1.69.42.69-2.77c.46.13.91.24 1.34.36l-.69 2.76 1.69.42.7-2.81c2.88.55 5.05.33 5.96-2.27.74-2.09-.04-3.3-1.55-4.09 1.1-.25 1.93-.98 2.15-2.48zm-3.85 5.4c-.52 2.09-4.05.96-5.19.68l.93-3.71c1.14.28 4.81.85 4.26 3.03zm.52-5.43c-.47 1.9-3.41 .94-4.36 .7l.84-3.37c.95.24 4.02.69 3.52 2.67z"/>
</svg>
