<?xml version="1.0" encoding="UTF-8"?>
<svg xmlns="http://www.w3.org/2000/svg" width="64" height="64" viewBox="0 0 64 64" role="img" aria-label="Coinbase">
  <rect width="64" height="64" rx="14" fill="#0052FF"/>
  <!-- Coinbase official "C" mark -->
  <path d="M32 12a20 20 0 1 0 0 40 20 20 0 0 0 0-40zm0 30.4c-5.74 0-10.4-4.66-10.4-10.4S26.26 21.6 32 21.6c5.07 0 9.3 3.65 10.21 8.46h-9.84a2.66 2.66 0 0 0-2.41 1.94 2.66 2.66 0 0 0 2.59 3.34h9.66C40.97 39.95 36.85 42.4 32 42.4z" fill="#fff"/>
  <rect x="27.5" y="27.5" width="9" height="9" rx="1.5" fill="#fff"/>
</svg>
