<?xml version="1.0" encoding="UTF-8"?>
<!--
  Waltio official logo — wordmark purple sur carre blanc (brand officiel).
  Source : path officiel telecharge depuis waltio.com (2026-04-28).
  Couleur officielle Waltio : #503BFF (purple/violet, pas bleu).
-->
<svg xmlns="http://www.w3.org/2000/svg" viewBox="0 0 64 64" width="64" height="64" role="img" aria-label="Waltio">
  <rect width="64" height="64" rx="14" fill="#FFFFFF"/>
  <!-- Wordmark Waltio officiel embarque (path original 92x26).
       Scale 0.5x = 46px x 13px. Centre : x=(64-46)/2=9, y=(64-13)/2=25.5. -->
  <g transform="translate(9, 25.5) scale(0.5)" fill="#503BFF">
    <path d="M25.8567 7.82346L20.0844 25.3298H16.365L12.9432 14.9165L9.52147 25.3298H5.80215L0 7.82346H4.5227L7.76595 18.7498L11.0092 7.82346H14.8178L18.0908 18.7498L21.334 7.82346H25.8567Z"/>
    <path d="M30.5726 8.1253C29.3723 8.60823 28.316 9.29261 27.4037 10.1778L29.9329 12.7735C30.5674 12.19 31.2022 11.788 31.8372 11.5662C32.4717 11.3451 33.0869 11.2342 33.682 11.2342C34.9116 11.2342 35.854 11.536 36.5087 12.1397C37.1633 12.7434 37.4906 13.5583 37.4906 14.5845H35.0209C33.8902 14.5845 32.834 14.7053 31.8521 14.9467C30.8702 15.1882 30.0118 15.5559 29.2783 16.0484C28.5441 16.5417 27.9639 17.1554 27.5376 17.8896C27.1107 18.6245 26.8979 19.4845 26.8979 20.4703C26.8979 21.2551 27.0318 21.9694 27.2996 22.6131C27.5674 23.2574 27.949 23.8156 28.4452 24.2885C28.9409 24.7616 29.526 25.1238 30.2007 25.3749C30.8747 25.6266 31.6289 25.7524 32.462 25.7524C33.3547 25.7524 34.2221 25.6516 35.0656 25.4508C35.9084 25.2495 36.7066 24.8873 37.4608 24.364V25.2996H41.7455V15.641C41.7455 14.1723 41.5924 12.9651 41.2875 12.0187C40.982 11.0734 40.4552 10.2182 39.7068 9.45337C39.1355 8.8497 38.3849 8.35693 37.4561 7.97438C36.5268 7.5925 35.4672 7.4009 34.2768 7.4009C33.0075 7.4009 31.7725 7.64237 30.5726 8.1253ZM31.8818 21.5569C31.4154 21.175 31.1826 20.6816 31.1826 20.0779C31.1826 19.6553 31.2964 19.2931 31.5248 18.9913C31.7527 18.6897 32.0603 18.4434 32.4471 18.2516C32.834 18.0607 33.29 17.9248 33.8159 17.8443C34.3411 17.7643 34.9019 17.7236 35.497 17.7236H37.4608V20.9532C36.8258 21.3358 36.1962 21.6278 35.5714 21.8285C34.9465 22.03 34.3165 22.1304 33.682 22.1304C32.9478 22.1304 32.3475 21.9394 31.8818 21.5569Z"/>
    <path d="M45.0469 0.247559V20.9534C45.0469 21.8188 45.1756 22.5583 45.4337 23.1718C45.6914 23.7862 46.0387 24.284 46.4751 24.6661C46.9113 25.0482 47.4223 25.3247 48.0075 25.4962C48.5926 25.6668 49.2022 25.7525 49.8372 25.7525C50.2934 25.7525 50.7348 25.702 51.1613 25.6016C51.588 25.5005 51.9694 25.37 52.307 25.2092V21.6476C51.8508 21.9496 51.3743 22.1003 50.8786 22.1003C50.4816 22.1003 50.1397 21.9645 49.8525 21.6928C49.5644 21.4212 49.4208 20.9232 49.4208 20.199V0.247559H45.0469Z"/>
    <path d="M54.7179 2.72248V7.82369C53.2345 7.82369 53.8645 7.82369 52.457 7.82369V11.7473H54.7181V19.3837C54.7181 20.4703 54.8121 21.4163 55.001 22.2209C55.1892 23.026 55.4921 23.6899 55.9085 24.213C56.3248 24.7364 56.8803 25.1238 57.5745 25.3749C58.269 25.6266 59.122 25.7524 60.1337 25.7524C60.7085 25.7524 61.2839 25.6817 61.8592 25.5413C62.4347 25.4 62.9403 25.1892 63.3767 24.9073V21.074C63.0393 21.3561 62.633 21.5569 62.1567 21.6776C61.6807 21.7984 61.274 21.8589 60.9372 21.8589C60.6789 21.8589 60.4357 21.8286 60.2078 21.7684C59.9797 21.7078 59.7766 21.5974 59.5983 21.4362C59.4195 21.2754 59.2753 21.0538 59.1666 20.7721C59.0573 20.4906 59.0028 20.1284 59.0028 19.6855V11.7473H63.3471V7.82369H59.0028V2.72248H54.7179Z"/>
    <path d="M65.9051 4.80501H70.3683V0.2775H65.9051V4.80501ZM65.9644 25.2995H70.3085V7.82356H65.9644V25.2995Z"/>
    <path d="M79.2648 8.11033C78.1538 8.58342 77.1822 9.23739 76.3491 10.0722C75.5157 10.9075 74.856 11.8832 74.3704 13C73.884 14.1168 73.6412 15.3088 73.6412 16.5768C73.6412 17.8648 73.8795 19.0669 74.3553 20.1837C74.8314 21.3005 75.4862 22.2716 76.3193 23.0964C77.1523 23.9218 78.124 24.5708 79.2353 25.0432C80.3457 25.5156 81.5361 25.7525 82.8058 25.7525C84.0749 25.7525 85.2703 25.5156 86.3913 25.0432C87.5116 24.5708 88.4888 23.9264 89.3221 23.1115C90.155 22.2963 90.8098 21.3306 91.2857 20.2139C91.7618 19.0973 92 17.8849 92 16.5768C92 15.2892 91.7618 14.0818 91.2857 12.9548C90.8098 11.8279 90.155 10.857 89.3221 10.0421C88.4888 9.22733 87.5116 8.58342 86.3913 8.11033C85.2703 7.63789 84.0749 7.40102 82.8058 7.40102C81.5559 7.40102 80.3754 7.63789 79.2648 8.11033ZM80.922 21.4816C80.3284 21.2097 79.8095 20.8326 79.3644 20.3497C78.9194 19.867 78.5684 19.3035 78.3114 18.6594C78.0544 18.0155 77.9259 17.3215 77.9259 16.5768C77.9259 15.8327 78.0544 15.1385 78.3114 14.4941C78.5684 13.8504 78.9194 13.2868 79.3644 12.8041C79.8095 12.3209 80.3284 11.9436 80.922 11.672C81.5152 11.4005 82.1482 11.2645 82.8205 11.2645C83.493 11.2645 84.1256 11.4005 84.7188 11.672C85.3121 11.9436 85.8313 12.3209 86.2761 12.8041C86.7212 13.2868 87.0722 13.8504 87.3294 14.4941C87.5864 15.1385 87.7153 15.8327 87.7153 16.5768C87.7153 17.3215 87.5864 18.0155 87.3294 18.6594C87.0722 19.3035 86.7212 19.867 86.2761 20.3497C85.8313 20.8326 85.3121 21.2097 84.7188 21.4816C84.1256 21.7532 83.493 21.8888 82.8205 21.8888C82.1482 21.8888 81.5152 21.7532 80.922 21.4816Z"/>
  </g>
</svg>
